<svg width="42" height="38" viewBox="0 0 42 38" xmlns="http://www.w3.org/2000/svg">
    <g fill="#9B9C9E" fill-rule="nonzero" opacity=".604">
        <path d="M33.823 10.062a11.702 11.702 0 0 0-3.66-6.71A11.71 11.71 0 0 0 22.244.276c-2.267 0-4.476.65-6.369 1.875a11.69 11.69 0 0 0-3.81 4.01 6.436 6.436 0 0 0-7.661 6.31c0 .459.05.9.134 1.334a8.944 8.944 0 0 0-3.685 7.211c0 2.31.86 4.552 2.426 6.327 1.61 1.818 3.735 2.893 6.002 3.018h7.237c.624 0 1.125-.5 1.125-1.125 0-.626-.5-1.126-1.126-1.126H9.381c-3.41-.208-6.277-3.45-6.277-7.102 0-2.36 1.267-4.56 3.31-5.752.475-.275.675-.85.492-1.367a4.184 4.184 0 0 1 5.352-5.36c.55.2 1.158-.05 1.408-.576a9.524 9.524 0 0 1 8.586-5.443 9.442 9.442 0 0 1 9.445 8.57c.05.508.434.916.934 1 3.71.633 6.51 4.06 6.51 7.97 0 4.142-3.259 7.743-7.277 8.052H25.72c-.625 0-1.125.5-1.125 1.125s.5 1.126 1.125 1.126h6.269c2.543-.184 4.918-1.35 6.686-3.301a10.381 10.381 0 0 0 2.717-7.003c-.008-4.676-3.2-8.836-7.569-9.987z"/>
        <path d="M27.88 22.083a1.122 1.122 0 0 0 0-1.592l-5.961-5.96a1.104 1.104 0 0 0-1.584 0l-5.96 5.96a1.122 1.122 0 0 0 0 1.592c.216.217.508.334.792.334.283 0 .575-.109.792-.334l4.043-4.043v18.581c0 .626.5 1.126 1.125 1.126s1.125-.5 1.125-1.126v-18.58l4.043 4.042a1.112 1.112 0 0 0 1.584 0z"/>
    </g>
</svg>
