<svg width="29" height="29" viewBox="0 0 29 29" xmlns="http://www.w3.org/2000/svg">
    <g transform="translate(.17 .814)" fill="none" fill-rule="evenodd">
        <circle fill="#E7E7E7" cx="13.926" cy="13.926" r="13.926"/>
        <g transform="translate(5.802 7.012)">
            <path d="M13.833 2.934c-.38-.4-.837-.601-1.368-.601H6.648V2.04c0-.559-.19-1.039-.571-1.44C5.696.201 5.24 0 4.709 0H1.94C1.408 0 .952.2.571.601.191 1.002 0 1.482 0 2.041v8.748c0 .559.19 1.039.571 1.44.381.4.837.601 1.368.601h10.526c.531 0 .987-.2 1.368-.602.381-.4.571-.88.571-1.44V4.375c0-.559-.19-1.039-.57-1.44zm-.537 7.855c0 .243-.08.45-.242.62a.782.782 0 0 1-.589.255H1.94a.782.782 0 0 1-.589-.255.867.867 0 0 1-.242-.62V2.04c0-.243.08-.45.242-.62a.782.782 0 0 1 .59-.254h2.77c.23 0 .426.085.588.255.161.17.242.376.242.62v.582c0 .244.081.45.243.62.161.17.357.255.588.255h6.094c.231 0 .427.085.59.255.16.17.241.377.241.62v6.415z" fill="var(--main-color)"/>
            <circle stroke="#39B983" fill="#39B983" cx="11.877" cy="10.24" r="4.474"/>
            <path stroke="#FFF" stroke-linecap="round" stroke-linejoin="round" d="M11.877 8.115v4.25"/>
            <path stroke="#FFF" stroke-linecap="round" d="M14.002 10.24h-4.25"/>
        </g>
    </g>
</svg>
