<svg width="29" height="28" viewBox="0 0 29 28" xmlns="http://www.w3.org/2000/svg">
    <g transform="translate(.53)" fill="none" fill-rule="evenodd">
        <circle fill="#E7E7E7" cx="14" cy="14" r="14"/>
        <g fill="#A7A7A7" fill-rule="nonzero">
            <path d="M16.236 11.09a.615.615 0 0 1 1.225.123l-.727 7.272a.615.615 0 1 1-1.225-.122l.727-7.273zM13.324 11.152c0-.34.298-.616.667-.616.368 0 .666.276.666.616v7.272c0 .34-.298.616-.666.616-.369 0-.667-.276-.667-.616v-7.272zM10.418 11.213a.615.615 0 1 1 1.225-.123l.725 7.273a.615.615 0 0 1-1.225.122l-.725-7.272z"/>
            <path d="M19.146 8.174a.615.615 0 0 1 1.223.136l-1.352 12.166c-.093.844-.83 1.473-1.696 1.473h-6.763c-.866 0-1.603-.629-1.697-1.473L7.51 8.31a.615.615 0 0 1 1.223-.136l1.352 12.166c.023.208.222.378.473.378h6.763c.25 0 .45-.17.473-.378l1.352-12.166z"/>
            <path d="M6.667 8.96c-.34 0-.616-.298-.616-.666 0-.368.276-.667.616-.667h14.545c.34 0 .616.299.616.667 0 .368-.276.666-.616.666H6.667zM11.03 7.506c-.34 0-.615-.299-.615-.667 0-.368.275-.667.615-.667h5.818c.34 0 .616.299.616.667 0 .368-.276.667-.616.667H11.03z"/>
        </g>
    </g>
</svg>
