<svg width="26" height="26" viewBox="0 0 26 26" xmlns="http://www.w3.org/2000/svg">
    <g fill="none" fill-rule="evenodd">
        <path d="M17.073 8.903a2.08 2.08 0 0 0-.43-.68L13.853 5.43a2.085 2.085 0 0 0-.68-.43 2.066 2.066 0 0 0-.788-.179H6.657a.828.828 0 0 0-.609.25.828.828 0 0 0-.25.61v12.026c0 .239.083.442.25.609.167.167.37.25.609.25h9.736a.828.828 0 0 0 .608-.25.828.828 0 0 0 .251-.609V9.69c0-.238-.06-.5-.179-.787zm-4.402-2.864c.172.06.295.126.366.197l2.801 2.801c.072.072.137.194.197.367h-3.364V6.039zm3.436 11.383H6.943V5.968h4.582V9.69c0 .24.083.442.25.609.168.167.37.25.61.25h3.722v6.873z" fill="var(--main-color)"/>
        <g transform="translate(10.884 11.968)">
            <circle stroke="#39B983" fill="#39B983" cx="4.464" cy="4.464" r="4.464"/>
            <path stroke="#FFF" stroke-linecap="round" stroke-linejoin="round" d="M4.464 2.154v4.62"/>
            <path stroke="#FFF" stroke-linecap="round" d="M6.774 4.464h-4.62"/>
        </g>
    </g>
</svg>
