<svg width="17" height="17" viewBox="0 0 17 17" xmlns="http://www.w3.org/2000/svg">
    <g fill-rule="nonzero" fill="none">
        <path d="M8.16 16.292c4.131 0 7.48-3.489 7.48-7.792S12.291.708 8.16.708.68 4.197.68 8.5s3.349 7.792 7.48 7.792zm0 .708C3.653 17 0 13.194 0 8.5S3.653 0 8.16 0s8.16 3.806 8.16 8.5S12.667 17 8.16 17z" fill="#EEE"/>
        <g fill="#FFF">
            <path d="M4.674 5.976c-.277-.277-.286-.717-.02-.982.265-.266.705-.257.982.02l6.01 6.01c.277.277.286.717.02.982-.265.266-.705.257-.982-.02l-6.01-6.01z"/>
            <path d="M10.544 5.114c.266-.265.705-.256.982.02.276.277.285.716.02.982l-5.77 5.77c-.266.265-.705.256-.982-.02-.276-.277-.285-.716-.02-.982l5.77-5.77z"/>
        </g>
    </g>
</svg>
