<svg width="19" height="18" viewBox="0 0 19 18" xmlns="http://www.w3.org/2000/svg">
    <g transform="translate(.797 1.758)" fill="none" fill-rule="evenodd">
        <path d="M14.174 3.107c-.39-.425-.857-.637-1.401-.637h-5.96V2.16c0-.592-.196-1.1-.586-1.524C5.837.212 5.369 0 4.825 0H1.987C1.443 0 .976.212.585.637.195 1.06 0 1.569 0 2.16v9.262c0 .592.195 1.1.585 1.525.39.424.858.637 1.402.637h10.786c.544 0 1.011-.213 1.401-.637.39-.425.586-.933.586-1.525V4.631c0-.592-.195-1.1-.586-1.524zm-.55 8.316a.935.935 0 0 1-.248.657.79.79 0 0 1-.603.27H1.987a.79.79 0 0 1-.603-.27.935.935 0 0 1-.249-.657V2.161c0-.257.083-.476.249-.656a.79.79 0 0 1 .603-.27h2.838a.79.79 0 0 1 .604.27c.165.18.248.4.248.656v.618c0 .257.083.476.248.656a.79.79 0 0 0 .603.27h6.245a.79.79 0 0 1 .603.27c.166.18.248.399.248.656v6.792z" fill="#A7A7A7"/>
        <ellipse stroke="#A7A7A7" fill="#A7A7A7" cx="12.17" cy="10.842" rx="4.355" ry="4.5"/>
        <path stroke="#FFF" stroke-linecap="round" stroke-linejoin="round" d="M12.17 8.592v4.5"/>
        <path stroke="#FFF" stroke-linecap="round" d="M14.348 10.842H9.993"/>
    </g>
</svg>
