<svg width="32" height="32" viewBox="0 0 32 32" xmlns="http://www.w3.org/2000/svg">
    <path d="M15.03 1.732a1.64 1.64 0 0 0-1.643 1.642v1.4l-.406.112c-.917.252-1.794.615-2.618 1.09l-.364.21-.997-.988v-.002a1.62 1.62 0 0 0-1.162-.481c-.44 0-.85.17-1.162.481L5.296 6.58a1.62 1.62 0 0 0-.481 1.16c0 .44.168.848.48 1.162l.989.99-.209.364a11.379 11.379 0 0 0-1.09 2.62l-.11.406h-1.4a1.64 1.64 0 0 0-1.642 1.642v1.953a1.64 1.64 0 0 0 1.642 1.642h1.4l.11.406c.253.918.613 1.794 1.088 2.618l.21.365-.985.997h-.002a1.64 1.64 0 0 0 0 2.321l1.382 1.382c.312.313.723.481 1.162.481.44 0 .848-.168 1.162-.48l.986-.989.366.209c.827.47 1.703.837 2.62 1.09l.406.11v1.4c0 .908.734 1.644 1.642 1.644h1.953c.907 0 1.642-.735 1.642-1.644v-1.4l.406-.11a11.135 11.135 0 0 0 2.618-1.088l.365-.212.991.99a1.62 1.62 0 0 0 1.162.481c.44 0 .847-.168 1.16-.481l1.384-1.382a1.64 1.64 0 0 0 0-2.321l-.99-.988.21-.366c.47-.827.838-1.703 1.09-2.62l.112-.406h1.399a1.64 1.64 0 0 0 1.642-1.642V14.93a1.64 1.64 0 0 0-1.642-1.643h-1.4l-.11-.405a11.157 11.157 0 0 0-1.09-2.619l-.212-.366.992-.988a1.64 1.64 0 0 0 0-2.321L25.32 5.205a1.62 1.62 0 0 0-1.16-.481c-.44 0-.848.168-1.162.481l-.98.983-.366-.21a11.384 11.384 0 0 0-2.62-1.09l-.406-.112v-1.4a1.64 1.64 0 0 0-1.643-1.642H15.03v-.002zm.01 1.232h1.912a.67.67 0 0 1 .669.67v1.76c0 .229.154.415.378.46 1.316.26 2.56.775 3.678 1.521a.47.47 0 0 0 .596-.054l1.406-1.402h.202c.214-.031.443.014.587.159l1.353 1.353c.237.237.237.71 0 .947l-1.242 1.243a.462.462 0 0 0-.058.593h.002v.002a10.101 10.101 0 0 1 1.523 3.682.462.462 0 0 0 .46.378h1.758a.67.67 0 0 1 .67.669v1.913c0 .373-.295.67-.67.67h-1.759a.462.462 0 0 0-.459.38 10.17 10.17 0 0 1-1.52 3.678l-.005.003a.464.464 0 0 0 .058.593l1.242 1.243c.237.237.237.71 0 .947l-1.33 1.33c-.27.307-.7.264-.945.049l-.012-.011-1.255-1.256a.461.461 0 0 0-.592-.057l-.002.002a10.116 10.116 0 0 1-3.68 1.522.46.46 0 0 0-.376.46v1.76c0 .372-.296.67-.67.67h-1.912a.666.666 0 0 1-.67-.67v-1.76a.462.462 0 0 0-.379-.46 10.153 10.153 0 0 1-3.674-1.52.469.469 0 0 0-.593.052L8.49 25.727c-.237.237-.71.237-.947 0L6.19 24.373c-.237-.237-.237-.71 0-.947l1.242-1.243a.461.461 0 0 0 .06-.593l-.003-.002a10.158 10.158 0 0 1-1.523-3.682.462.462 0 0 0-.459-.378H3.735a.67.67 0 0 1-.67-.669v-1.913c0-.373.295-.67.67-.67h1.759a.462.462 0 0 0 .459-.379c.26-1.317.775-2.561 1.52-3.678a.47.47 0 0 0-.055-.597L6.176 8.379a.746.746 0 0 1-.193-.476c0-.156.073-.35.193-.47l1.355-1.355c.236-.237.71-.237.946 0L9.72 7.32a.461.461 0 0 0 .593.057l.001-.002a10.108 10.108 0 0 1 3.678-1.522.462.462 0 0 0 .378-.46v-1.76c0-.372.296-.67.67-.67h.001zm.96 7.394a5.547 5.547 0 0 0-5.544 5.544A5.547 5.547 0 0 0 16 21.447a5.545 5.545 0 0 0 0-11.09zm0 1.232c2.372 0 4.311 1.94 4.311 4.313a4.323 4.323 0 0 1-4.31 4.312 4.324 4.324 0 0 1-4.313-4.313A4.324 4.324 0 0 1 16 11.59z" fill="var(--main-color)" fill-rule="nonzero"/>
</svg>
