<svg width="24" height="25" xmlns="http://www.w3.org/2000/svg">
    <g transform="translate(0 .5)" fill="var(--main-color)" fill-rule="nonzero">
        <path d="M23 6.971c0-.61-.247-1.161-.642-1.55-.014-.019-.027-.039-.044-.055l-2.82-2.836a.666.666 0 0 0-.202-.138A1.964 1.964 0 0 0 18.12 2H5.882c-.454 0-.872.158-1.212.422a.673.673 0 0 0-.146.108L1.758 5.311c-.462.392-.758.99-.758 1.66v2.462c0 .547.199 1.044.522 1.422A2.183 2.183 0 0 0 1 12.278v2.249c0 .554.204 1.058.536 1.438-.332.38-.536.884-.536 1.438v2.461C1 21.042 1.915 22 3.039 22H20.96C22.085 22 23 21.042 23 19.864v-2.461c0-.554-.204-1.058-.536-1.438A2.18 2.18 0 0 0 23 14.527v-2.249c0-.547-.199-1.044-.522-1.423.323-.378.522-.875.522-1.422V6.971zM2 6.738c0-.246.112-.463.282-.597l.002-.002v-.001A.633.633 0 0 1 2.674 6h17.651c.372 0 .675.331.675.738v2.53c0 .386-.274.7-.62.732-.018 0-.036-.003-.055-.003H2.675L2.62 10C2.274 9.969 2 9.654 2 9.268v-2.53zm19 6.036v2.446c0 .43-.303.78-.675.78H2.675C2.303 16 2 15.65 2 15.22v-2.446c0-.409.274-.741.62-.774.018 0 .036.003.055.003h17.65c.019 0 .037-.002.055-.003.346.033.62.365.62.774zm0 7.49c0 .406-.303.736-.675.736H2.675C2.303 21 2 20.67 2 20.264v-2.527c0-.406.303-.737.675-.737h17.65c.372 0 .675.33.675.737v2.527z"/>
        <circle cx="18.795" cy="8.383" r="1"/>
        <path d="M4.054 9.036h4.692c.374 0 .677-.317.677-.709 0-.391-.303-.709-.677-.709H4.054c-.374 0-.677.318-.677.71 0 .39.303.708.677.708z"/>
        <circle cx="18.795" cy="13.69" r="1"/>
        <path d="M8.746 12.925H4.054c-.374 0-.677.317-.677.709 0 .391.303.709.677.709h4.692c.374 0 .677-.318.677-.71 0-.39-.303-.708-.677-.708z"/>
        <circle cx="18.795" cy="18.814" r="1"/>
        <path d="M8.746 18.05H4.054c-.374 0-.677.317-.677.709 0 .391.303.709.677.709h4.692c.374 0 .677-.318.677-.71 0-.39-.303-.708-.677-.708z"/>
    </g>
</svg>
