<?xml version="1.0" encoding="UTF-8"?>
<svg width="659px" height="482px" viewBox="0 0 659 482" version="1.1" xmlns="http://www.w3.org/2000/svg" xmlns:xlink="http://www.w3.org/1999/xlink">
    <title>Design 1/Primary Logo</title>
    <g id="Page-1" stroke="none" stroke-width="1" fill="none" fill-rule="evenodd">
        <g id="Design-1/Primary-Logo" transform="translate(0.670000, 0.070000)" fill-rule="nonzero">
            <g id="Group" transform="translate(0.000000, 0.000000)">
                <path d="M624.92,324.35 C581.45,289.99 520.48,277.18 466.43,274.7 C442.82,273.62 419.14,274.71 395.67,277.47 C365.35,281.03 334.66,287.67 305.22,295.64 C273.1,304.33 241.44,314.67 209.7,325.05 C241,320.99 272.5,317.78 304.3,317.44 C307.01,317.41 309.81,317.39 312.7,317.39 C332.53,317.39 356.38,318.22 380.03,322 C403.68,325.79 427.17,332.5 446.3,344.57 C457.54,351.66 468.11,361.61 475.2,372.9 C490.88,397.86 475.09,422.74 448.1,428.68 C425.6,433.63 399.5,428.05 378.06,420.73 C361.12,414.94 344.87,407.24 329.52,399.45 C321.71,395.49 312.24,390.07 301.24,384.14 C290.25,378.21 277.75,371.79 264.04,365.85 C236.61,353.98 204.35,344.13 169.62,344.13 C161.17,344.13 152.56,344.75 143.84,346.02 C142.19,346.52 140.54,347.02 138.89,347.52 C135.51,348.52 132.04,349.54 128.49,350.55 C163.08,357.23 197.52,367.12 229.69,381.5 C274.12,401.37 313.87,423.45 354.61,441.78 C395.36,460.11 437.07,474.7 485.68,479.84 C497.32,481.07 509.73,481.84 522.35,481.84 C538.98,481.84 555.98,480.51 572.03,477.18 C611.09,469.09 649.52,445.44 656.82,403.26 C656.86,403.03 656.9,402.8 656.94,402.57 C661.93,372.16 648.62,343.09 624.92,324.35 Z" id="Path" fill="#825D87"></path>
                <path d="M294.52,282.75 C344.84,268.53 396.1,257.56 448.96,257.56 C463.68,257.56 478.41,258.39 493.11,260.21 C493.95,260.31 494.84,260.44 495.7,260.55 C499.47,240.44 504.64,221.65 508.96,203.24 C513.62,183.39 517.26,164 517.26,143.68 C517.26,137.24 516.89,130.71 516.08,124.04 C512.73,96.62 500.54,70.55 482.46,49.49 C464.39,28.43 440.48,12.42 413.89,4.94 C402.04,1.61 389.77,-1.13686838e-13 377.45,-1.13686838e-13 C356,-1.13686838e-13 334.42,4.89 314.91,14.04 C295.39,23.15 277.94,36.51 264.61,53.35 C254.3,66.38 246.37,81.08 239.7,96.62 C233.01,112.16 227.59,128.56 222.23,144.88 C216.24,163.08 173.2,292.69 170.88,299.7 C139.04,282.03 94.3,268 59.97,260.89 C53.86,259.62 47.52,258.84 41.38,258.84 C35.24,258.84 29.32,259.62 24.02,261.4 C18.71,263.18 14.04,265.92 10.15,269.93 C7.55,272.61 5.29,275.87 3.44,279.9 C1.03,285.17 -5.68434189e-14,290.2 -5.68434189e-14,295.02 C-5.68434189e-14,299.64 0.96,304.09 2.71,308.37 C4.46,312.64 7.02,316.72 10.21,320.5 C16.57,328.06 25.43,334.34 34.83,338.4 C45.07,342.83 56.37,344.62 68.18,344.62 C86.73,344.62 105.09,340.86 122.87,335.8 C160.27,325.15 197.22,312.59 234.32,300.94 C254.26,294.7 274.31,288.46 294.52,282.75 Z" id="Path" fill="#957299"></path>
            </g>
        </g>
    </g>
</svg>