<?xml version="1.0" encoding="UTF-8"?>
<svg width="1398px" height="482px" viewBox="0 0 1398 482" version="1.1" xmlns="http://www.w3.org/2000/svg" xmlns:xlink="http://www.w3.org/1999/xlink">
    <title>Design 1/White Wordmark</title>
    <g id="Page-1" stroke="none" stroke-width="1" fill="none" fill-rule="evenodd">
        <g id="Design-1/White-Wordmark" transform="translate(0.670000, 0.070000)" fill-rule="nonzero">
            <g id="Group" transform="translate(0.000000, 0.000000)">
                <path d="M624.92,324.35 C581.45,289.99 520.48,277.18 466.43,274.7 C442.82,273.62 419.14,274.71 395.67,277.47 C365.35,281.03 334.66,287.67 305.22,295.64 C273.1,304.33 241.44,314.67 209.7,325.05 C241,320.99 272.5,317.78 304.3,317.44 C307.01,317.41 309.81,317.39 312.7,317.39 C332.53,317.39 356.38,318.22 380.03,322 C403.68,325.79 427.17,332.5 446.3,344.57 C457.54,351.66 468.11,361.61 475.2,372.9 C490.88,397.86 475.09,422.74 448.1,428.68 C425.6,433.63 399.5,428.05 378.06,420.73 C361.12,414.94 344.87,407.24 329.52,399.45 C321.71,395.49 312.24,390.07 301.24,384.14 C290.25,378.21 277.75,371.79 264.04,365.85 C236.61,353.98 204.35,344.13 169.62,344.13 C161.17,344.13 152.56,344.75 143.84,346.02 C142.19,346.52 140.54,347.02 138.89,347.52 C135.51,348.52 132.04,349.54 128.49,350.55 C163.08,357.23 197.52,367.12 229.69,381.5 C274.12,401.37 313.87,423.45 354.61,441.78 C395.36,460.11 437.07,474.7 485.68,479.84 C497.32,481.07 509.73,481.84 522.35,481.84 C538.98,481.84 555.98,480.51 572.03,477.18 C611.09,469.09 649.52,445.44 656.82,403.26 C656.86,403.03 656.9,402.8 656.94,402.57 C661.93,372.16 648.62,343.09 624.92,324.35 Z" id="Path" fill="#CDCDCD"></path>
                <path d="M294.52,282.75 C344.84,268.53 396.1,257.56 448.96,257.56 C463.68,257.56 478.41,258.39 493.11,260.21 C493.95,260.31 494.84,260.44 495.7,260.55 C499.47,240.44 504.64,221.65 508.96,203.24 C513.62,183.39 517.26,164 517.26,143.68 C517.26,137.24 516.89,130.71 516.08,124.04 C512.73,96.62 500.54,70.55 482.46,49.49 C464.39,28.43 440.48,12.42 413.89,4.94 C402.04,1.61 389.77,2.27373675e-13 377.45,2.27373675e-13 C356,2.27373675e-13 334.42,4.89 314.91,14.04 C295.39,23.15 277.94,36.51 264.61,53.35 C254.3,66.38 246.37,81.08 239.7,96.62 C233.01,112.16 227.59,128.56 222.23,144.88 C216.24,163.08 173.2,292.69 170.88,299.7 C139.04,282.03 94.3,268 59.97,260.89 C53.86,259.62 47.52,258.84 41.38,258.84 C35.24,258.84 29.32,259.62 24.02,261.4 C18.71,263.18 14.04,265.92 10.15,269.93 C7.55,272.61 5.29,275.87 3.44,279.9 C1.03,285.17 0,290.2 0,295.02 C0,299.64 0.96,304.09 2.71,308.37 C4.46,312.64 7.02,316.72 10.21,320.5 C16.57,328.06 25.43,334.34 34.83,338.4 C45.07,342.83 56.37,344.62 68.18,344.62 C86.73,344.62 105.09,340.86 122.87,335.8 C160.27,325.15 197.22,312.59 234.32,300.94 C254.26,294.7 274.31,288.46 294.52,282.75 Z" id="Path" fill="#FFFFFF"></path>
            </g>
            <g id="Text" transform="translate(732.981484, 119.540000)" fill="#FFFFFF">
                <path d="M127.43,87.94 C137.37,98.9 142.34,115.22 142.34,136.91 L142.34,228.74 C142.34,233.03 141.1,236.36 138.61,238.74 C136.12,241.11 132.85,242.3 128.78,242.3 C124.49,242.3 121.1,241.11 118.61,238.74 C116.12,236.37 114.88,233.04 114.88,228.74 L114.88,137.59 C114.88,122.91 111.88,112.06 105.9,105.06 C99.91,98.06 90.37,94.55 77.27,94.55 C62.13,94.55 50.04,99.18 41.01,108.44 C31.97,117.71 27.46,130.24 27.46,146.05 L27.46,228.74 C27.46,233.03 26.27,236.36 23.9,238.74 C21.53,241.11 18.19,242.3 13.9,242.3 C9.61,242.3 6.22,241.11 3.73,238.74 C1.24,236.37 0,233.04 0,228.74 L0,13.22 C0,9.38 1.3,6.22 3.9,3.73 C6.49,1.25 9.83,-2.27373675e-13 13.9,-2.27373675e-13 C18.19,-2.27373675e-13 21.53,1.19 23.9,3.56 C26.27,5.93 27.46,9.15 27.46,13.22 L27.46,102 C32.88,92.06 40.45,84.5 50.16,79.3 C59.87,74.11 70.94,71.51 83.37,71.51 C102.8,71.5 117.49,76.99 127.43,87.94 Z" id="Path"></path>
                <path d="M219.77,232.47 C207.91,225.47 198.76,215.47 192.32,202.48 C185.88,189.49 182.66,174.41 182.66,157.24 C182.66,140.07 185.88,124.99 192.32,112 C198.76,99.01 207.91,89.02 219.77,82.01 C231.63,75.01 245.35,71.5 260.94,71.5 C276.53,71.5 290.31,75.01 302.28,82.01 C314.25,89.02 323.46,99.01 329.9,112 C336.34,124.99 339.56,140.07 339.56,157.24 C339.56,174.41 336.34,189.49 329.9,202.48 C323.46,215.47 314.25,225.47 302.28,232.47 C290.3,239.48 276.53,242.98 260.94,242.98 C245.36,242.97 231.63,239.47 219.77,232.47 Z M298.39,204.17 C307.08,193.44 311.44,177.8 311.44,157.24 C311.44,137.13 307.03,121.61 298.22,110.65 C289.41,99.69 276.98,94.21 260.94,94.21 C244.9,94.21 232.47,99.69 223.66,110.65 C214.85,121.61 210.44,137.14 210.44,157.24 C210.44,177.57 214.79,193.16 223.49,204 C232.18,214.84 244.67,220.27 260.93,220.27 C277.19,220.27 289.69,214.91 298.39,204.17 Z" id="Shape"></path>
                <path d="M406.49,239.25 C397.11,236.77 388.81,233.27 381.58,228.75 C377.51,226.04 374.63,223.5 372.94,221.12 C371.25,218.75 370.4,215.87 370.4,212.48 C370.4,209.55 371.25,207.12 372.94,205.2 C374.63,203.28 376.84,202.32 379.55,202.32 C382.26,202.32 386.21,204.01 391.41,207.4 C398.19,211.47 404.91,214.69 411.57,217.06 C418.23,219.43 426.53,220.62 436.48,220.62 C448.68,220.62 458.17,218.48 464.95,214.18 C471.73,209.89 475.12,203.68 475.12,195.54 C475.12,190.57 473.88,186.56 471.39,183.51 C468.9,180.46 464.61,177.75 458.51,175.38 C452.41,173.01 443.48,170.58 431.74,168.09 C411.86,163.8 397.62,158.04 389.04,150.81 C380.45,143.58 376.16,133.76 376.16,121.33 C376.16,111.62 378.87,103.03 384.29,95.58 C389.71,88.13 397.22,82.25 406.82,77.96 C416.42,73.67 427.32,71.52 439.52,71.52 C448.33,71.52 456.86,72.71 465.1,75.08 C473.34,77.45 480.63,80.79 486.96,85.08 C494.64,90.5 498.48,96.15 498.48,102.02 C498.48,104.96 497.57,107.44 495.77,109.48 C493.96,111.51 491.81,112.53 489.33,112.53 C486.62,112.53 482.55,110.61 477.13,106.77 C470.8,102.7 464.81,99.54 459.17,97.28 C453.52,95.02 446.52,93.89 438.16,93.89 C427.54,93.89 419.01,96.26 412.58,101.01 C406.14,105.75 402.92,112.08 402.92,119.99 C402.92,124.96 404.11,128.97 406.48,132.02 C408.85,135.07 412.8,137.78 418.34,140.15 C423.87,142.52 431.84,144.84 442.23,147.1 C457.59,150.49 469.51,154.22 477.98,158.28 C486.45,162.35 492.49,167.32 496.11,173.19 C499.72,179.07 501.53,186.52 501.53,195.56 C501.53,209.79 495.54,221.26 483.57,229.95 C471.59,238.65 455.78,243 436.13,243 C425.74,242.97 415.86,241.73 406.49,239.25 Z" id="Path"></path>
                <path d="M569.14,239.25 C559.76,236.77 551.46,233.27 544.23,228.75 C540.16,226.04 537.28,223.5 535.59,221.12 C533.9,218.75 533.05,215.87 533.05,212.48 C533.05,209.55 533.9,207.12 535.59,205.2 C537.28,203.28 539.49,202.32 542.2,202.32 C544.91,202.32 548.86,204.01 554.06,207.4 C560.84,211.47 567.56,214.69 574.22,217.06 C580.88,219.43 589.18,220.62 599.13,220.62 C611.33,220.62 620.82,218.48 627.6,214.18 C634.38,209.89 637.77,203.68 637.77,195.54 C637.77,190.57 636.53,186.56 634.04,183.51 C631.55,180.46 627.26,177.75 621.16,175.38 C615.06,173.01 606.13,170.58 594.39,168.09 C574.51,163.8 560.27,158.04 551.69,150.81 C543.1,143.58 538.81,133.76 538.81,121.33 C538.81,111.62 541.52,103.03 546.94,95.58 C552.36,88.13 559.87,82.25 569.47,77.96 C579.07,73.67 589.97,71.52 602.17,71.52 C610.98,71.52 619.51,72.71 627.75,75.08 C635.99,77.45 643.28,80.79 649.61,85.08 C657.29,90.5 661.13,96.15 661.13,102.02 C661.13,104.96 660.22,107.44 658.42,109.48 C656.61,111.51 654.46,112.53 651.98,112.53 C649.27,112.53 645.2,110.61 639.78,106.77 C633.45,102.7 627.46,99.54 621.82,97.28 C616.17,95.02 609.17,93.89 600.81,93.89 C590.19,93.89 581.66,96.26 575.23,101.01 C568.79,105.75 565.57,112.08 565.57,119.99 C565.57,124.96 566.76,128.97 569.13,132.02 C571.5,135.07 575.45,137.78 580.99,140.15 C586.52,142.52 594.49,144.84 604.88,147.1 C620.24,150.49 632.16,154.22 640.63,158.28 C649.1,162.35 655.14,167.32 658.76,173.19 C662.37,179.07 664.18,186.52 664.18,195.56 C664.18,209.79 658.19,221.26 646.22,229.95 C634.24,238.65 618.43,243 598.78,243 C588.4,242.97 578.52,241.73 569.14,239.25 Z" id="Path"></path>
            </g>
        </g>
    </g>
</svg>