<svg xmlns="http://www.w3.org/2000/svg" viewBox="0 0 388.23 36.79"><defs><style>.cls-1,.cls-2{fill:#fff;}.cls-2{font-size:21px;font-family:NunitoSans-Regular, Nunito Sans;letter-spacing:0.04em;}.cls-3{letter-spacing:0.04em;}.cls-4{letter-spacing:0.03em;}.cls-5{letter-spacing:0.03em;}.cls-6{letter-spacing:0.03em;}.cls-7{letter-spacing:0.02em;}.cls-8{fill:none;stroke:#fff;stroke-miterlimit:10;}</style></defs><g id="dmk_edits" data-name="dmk edits"><g id="teal_simplified_175" data-name="teal/simplified/175"><path class="cls-1" d="M61.34,11.92a1.16,1.16,0,0,1,1.16,1.16V26.52a7.13,7.13,0,0,1-1.55,5,6,6,0,0,1-4.63,1.68,9.9,9.9,0,0,1-6.38-2.1.18.18,0,0,1,0-.22h0a1.06,1.06,0,0,1,1.48-.36,9.76,9.76,0,0,0,1.93.95,9.44,9.44,0,0,0,3,.43A4.73,4.73,0,0,0,60,30.56a5.43,5.43,0,0,0,1.23-3.85V24.14a.17.17,0,0,0-.32-.08,5,5,0,0,1-1.75,1.85,6.38,6.38,0,0,1-3.41.87,6.86,6.86,0,0,1-3.6-1,6.53,6.53,0,0,1-2.44-2.7,8.81,8.81,0,0,1-.87-4,8.69,8.69,0,0,1,.87-4,6.54,6.54,0,0,1,2.44-2.68,6.86,6.86,0,0,1,3.6-1,6.31,6.31,0,0,1,3.36.85,5.14,5.14,0,0,1,1.77,1.82.17.17,0,0,0,.32-.08v-2a.18.18,0,0,1,.17-.17ZM59.73,23.78a6.93,6.93,0,0,0,1.44-4.64,6.87,6.87,0,0,0-1.44-4.62,5,5,0,0,0-4-1.68,5.06,5.06,0,0,0-4,1.68,6.78,6.78,0,0,0-1.47,4.62,6.84,6.84,0,0,0,1.47,4.66,5.06,5.06,0,0,0,4,1.68A5,5,0,0,0,59.73,23.78Z"/><path class="cls-1" d="M68,6.29h.49a.68.68,0,0,1,.68.68v.47a.17.17,0,0,1-.17.17h-.5a.67.67,0,0,1-.67-.67V6.46A.17.17,0,0,1,68,6.29Zm-.15,19.8v-14a.17.17,0,0,1,.17-.17h0a1.16,1.16,0,0,1,1.16,1.16v14a.17.17,0,0,1-.17.17h0A1.16,1.16,0,0,1,67.89,26.09Z"/><path class="cls-1" d="M86.08,11.92a1.16,1.16,0,0,1,1.16,1.16V26.52a7.08,7.08,0,0,1-1.55,5,6,6,0,0,1-4.62,1.68,9.88,9.88,0,0,1-6.38-2.1.17.17,0,0,1,0-.22h0a1.06,1.06,0,0,1,1.48-.36,9.56,9.56,0,0,0,1.94.95,9.36,9.36,0,0,0,3,.43,4.71,4.71,0,0,0,3.61-1.32,5.43,5.43,0,0,0,1.23-3.85V24.14a.16.16,0,0,0-.31-.08,5.12,5.12,0,0,1-1.76,1.85,6.38,6.38,0,0,1-3.41.87,6.8,6.8,0,0,1-3.59-1,6.4,6.4,0,0,1-2.44-2.7,8.81,8.81,0,0,1-.87-4,8.69,8.69,0,0,1,.87-4,6.41,6.41,0,0,1,2.44-2.68,6.8,6.8,0,0,1,3.59-1,6.31,6.31,0,0,1,3.36.85,5.26,5.26,0,0,1,1.78,1.82.17.17,0,0,0,.31-.08v-2a.18.18,0,0,1,.17-.17ZM84.47,23.78a6.93,6.93,0,0,0,1.44-4.64,6.87,6.87,0,0,0-1.44-4.62,5.61,5.61,0,0,0-8,0A6.73,6.73,0,0,0,75,19.14a6.79,6.79,0,0,0,1.48,4.66,5,5,0,0,0,4,1.68A5,5,0,0,0,84.47,23.78Z"/><path class="cls-1" d="M103.81,17.21v9.87a.16.16,0,0,1-.17.17h0a1.19,1.19,0,0,1-1.19-1.19v-1a.17.17,0,0,0-.31-.1,5.06,5.06,0,0,1-1.7,1.68,5.69,5.69,0,0,1-3,.8,6,6,0,0,1-2.68-.61,4.75,4.75,0,0,1-1.93-1.66,4.06,4.06,0,0,1-.72-2.33A3.6,3.6,0,0,1,93,20.24a5.49,5.49,0,0,1,3-1.35,32.1,32.1,0,0,1,5.82-.41h.46a.18.18,0,0,0,.17-.17V17.15a4.91,4.91,0,0,0-.89-3.28,3.52,3.52,0,0,0-2.82-1,9.21,9.21,0,0,0-2.74.39,9.63,9.63,0,0,0-1.65.72,1.13,1.13,0,0,1-1.52-.44h0a.17.17,0,0,1,0-.22A9.31,9.31,0,0,1,95.47,12a10,10,0,0,1,3.08-.49Q103.82,11.54,103.81,17.21ZM100,25.46a4.77,4.77,0,0,0,1.79-1.88,5.68,5.68,0,0,0,.65-2.73v-1a.18.18,0,0,0-.17-.17h-.43a35.56,35.56,0,0,0-5.07.27,4.68,4.68,0,0,0-2.44.92,2.51,2.51,0,0,0-.7,1.92,3,3,0,0,0,1.08,2.39,4,4,0,0,0,2.73.93A4.83,4.83,0,0,0,100,25.46Z"/><path class="cls-1" d="M121.33,17.37v9.71a.16.16,0,0,1-.17.17h0A1.16,1.16,0,0,1,120,26.09V17.5a5.33,5.33,0,0,0-1-3.57,4,4,0,0,0-3.17-1.12,5.24,5.24,0,0,0-3.91,1.5,5.49,5.49,0,0,0-1.47,4v8.76a.17.17,0,0,1-.17.17h0a1.16,1.16,0,0,1-1.16-1.16v-14a.17.17,0,0,1,.17-.17h0a1.13,1.13,0,0,1,1.13,1.13V14a.17.17,0,0,0,.31.09,5,5,0,0,1,1.79-1.74,6.34,6.34,0,0,1,3.22-.81C119.48,11.54,121.33,13.48,121.33,17.37Z"/><path class="cls-1" d="M133.67,27.2h0a.18.18,0,0,1-.15.16,10.46,10.46,0,0,1-1.29.07,4.8,4.8,0,0,1-3.66-1.37,5.23,5.23,0,0,1-1.28-3.7V13.23a.18.18,0,0,0-.17-.17h-2.73a.17.17,0,0,1-.17-.17h0a1,1,0,0,1,1-1h1.93a.18.18,0,0,0,.17-.17V7.31a.18.18,0,0,1,.17-.18h0a1.16,1.16,0,0,1,1.16,1.17v3.45a.18.18,0,0,0,.17.17h4.29a.18.18,0,0,1,.17.17h0a1,1,0,0,1-1,1h-3.49a.18.18,0,0,0-.17.17v8.86a4.43,4.43,0,0,0,.95,3.07,3.62,3.62,0,0,0,2.82,1.05h.29A1,1,0,0,1,133.67,27.2Z"/><path class="cls-1" d="M148.49,13.08v14a.17.17,0,0,1-.17.17h0a1.12,1.12,0,0,1-1.13-1.13V25a.17.17,0,0,0-.32-.08,5.2,5.2,0,0,1-1.79,1.73,6,6,0,0,1-3.12.81,5.25,5.25,0,0,1-4-1.49,6.24,6.24,0,0,1-1.38-4.38V12.09a.18.18,0,0,1,.17-.17h0a1.16,1.16,0,0,1,1.16,1.16v8.41a5.39,5.39,0,0,0,1,3.55,3.82,3.82,0,0,0,3.05,1.14,5,5,0,0,0,3.81-1.51,5.56,5.56,0,0,0,1.45-4V12.09a.17.17,0,0,1,.17-.17h0A1.16,1.16,0,0,1,148.49,13.08Z"/><path class="cls-1" d="M175,17.37v9.71a.16.16,0,0,1-.17.17h0a1.16,1.16,0,0,1-1.16-1.16V17.5a5.78,5.78,0,0,0-.88-3.57,3.39,3.39,0,0,0-2.82-1.12,4.47,4.47,0,0,0-3.54,1.49,5.88,5.88,0,0,0-1.31,4v8.76a.17.17,0,0,1-.17.17h0a1.16,1.16,0,0,1-1.16-1.16V17.5a5.78,5.78,0,0,0-.89-3.57,3.37,3.37,0,0,0-2.82-1.12,4.44,4.44,0,0,0-3.53,1.49,5.83,5.83,0,0,0-1.32,4v8.76a.16.16,0,0,1-.17.17h0a1.16,1.16,0,0,1-1.16-1.16v-14a.18.18,0,0,1,.17-.17h0a1.12,1.12,0,0,1,1.13,1.13v.84a.17.17,0,0,0,.32.09,4.69,4.69,0,0,1,1.57-1.65,5.39,5.39,0,0,1,3-.79q3.45,0,4.59,2.72a.17.17,0,0,0,.3,0,5.14,5.14,0,0,1,1.87-1.92,6,6,0,0,1,3.12-.82Q175,11.54,175,17.37Z"/><path class="cls-1" d="M8.92,7.12l.55,0a10.6,10.6,0,0,1,4.86,1.71,11,11,0,0,1,3.06-4.22,10.22,10.22,0,0,1,1-.77c1.94-1.48,2.89-.89,2.86-1.8,0-.66-.9-.64-2.28-.77A16.82,16.82,0,0,0,12.38,2,9.86,9.86,0,0,0,8.92,7.12Z"/><path class="cls-1" d="M2.07,10.6a10.12,10.12,0,0,0,1.1,6.14l.42-.38a10.66,10.66,0,0,1,4.62-2.3,11.2,11.2,0,0,1-.76-5.19,10.84,10.84,0,0,1,.2-1.3h0A11.13,11.13,0,0,1,9.72,3.06,17.73,17.73,0,0,0,2.07,10.6Z"/><path class="cls-1" d="M9.37,8.3l-.71,0c0,.24-.07.47-.09.71a10.1,10.1,0,0,0,.78,4.9,10.81,10.81,0,0,1,4.19.38,11.21,11.21,0,0,1,.4-4.27A9.59,9.59,0,0,0,9.37,8.3Z"/><path class="cls-1" d="M.07,17.37a18.17,18.17,0,0,0,.67,6.77,9.73,9.73,0,0,0,5,3.54c0-.19,0-.38,0-.57a11.17,11.17,0,0,1,1.67-5A10.79,10.79,0,0,1,3.35,19,12.5,12.5,0,0,1,2.59,18,11.2,11.2,0,0,1,.93,13.28,18.15,18.15,0,0,0,.07,17.37Z"/><path class="cls-1" d="M9.09,15.06a9.6,9.6,0,0,0-4.78,2.18c-.18.16-.36.32-.52.48a6,6,0,0,0,.42.57A9.74,9.74,0,0,0,8.15,21.2a10.87,10.87,0,0,1,6.13-3.87,11.45,11.45,0,0,1-.55-1.81A9.63,9.63,0,0,0,9.09,15.06Z"/><path class="cls-1" d="M7.48,29.17A10.1,10.1,0,0,1,6.21,29,10.62,10.62,0,0,1,1.8,26.86a17.75,17.75,0,0,0,7.37,7.82,9.62,9.62,0,0,0,6-1.14l-.37-.42a11.23,11.23,0,0,1-2.25-4.72A10.49,10.49,0,0,1,7.48,29.17Z"/><path class="cls-1" d="M14.45,19.46c.17-.23.35-.46.54-.68l-.21-.38a9.25,9.25,0,0,0-2.11.67A9.79,9.79,0,0,0,8.8,22.22a10.09,10.09,0,0,0-1.88,5q0,.36,0,.72c.22,0,.46.07.69.09a9.51,9.51,0,0,0,4.8-.79,11.34,11.34,0,0,1,.67-5.19A10.8,10.8,0,0,1,14.45,19.46Z"/><path class="cls-1" d="M25.89,30.89l-.55,0a10.71,10.71,0,0,1-4.86-1.71,11,11,0,0,1-3.06,4.22,11.5,11.5,0,0,1-1,.77,10.63,10.63,0,0,1-4.6,1.7A17.15,17.15,0,0,0,22.43,36,9.9,9.9,0,0,0,25.89,30.89Z"/><path class="cls-1" d="M32.37,27.31a9.74,9.74,0,0,0-1.19-6l-.42.37A9.14,9.14,0,0,1,26.6,24a11.16,11.16,0,0,1,.76,5.19,12.44,12.44,0,0,1-.2,1.3A11.17,11.17,0,0,1,25.09,35,17.21,17.21,0,0,0,32.37,27.31Z"/><path class="cls-1" d="M25.44,29.71a5.63,5.63,0,0,0,.71,0c0-.23.07-.47.09-.71a10.14,10.14,0,0,0-.78-4.9,10.6,10.6,0,0,1-4.19-.38,11.26,11.26,0,0,1-.4,4.28A9.57,9.57,0,0,0,25.44,29.71Z"/><path class="cls-1" d="M16.86,21.17c-.17-.16-.35-.34-.51-.52s-.25-.29-.37-.43l-.34-.45-.28.37a9.72,9.72,0,0,0-1.26,2.33,10,10,0,0,0,1.58,9.92c.15.18.31.36.47.53.19-.14.37-.28.56-.44a9.86,9.86,0,0,0,3-4.4,10.21,10.21,0,0,0,.41-4.75A10.57,10.57,0,0,1,17.84,22,11.26,11.26,0,0,1,16.86,21.17Z"/><path class="cls-1" d="M34.18,16.65a3.8,3.8,0,0,0-3.57-2.94c-1.72-.05-4.08-.07-6.62,0a.5.5,0,0,0-.12,1c3.78,1.18,6.14,2.55,7.79,4.77a8.88,8.88,0,0,1,2.05,5.34c0,.16,0,.33,0,.49l0,0a15.79,15.79,0,0,0,.9-5.93A15.75,15.75,0,0,0,34.18,16.65Z"/></g><text class="cls-2" transform="translate(197.85 25.31)">hybrid obje<tspan class="cls-3" x="112.77" y="0">c</tspan><tspan class="cls-4" x="123.58" y="0">t </tspan><tspan class="cls-5" x="137.61" y="0">s</tspan><tspan class="cls-6" x="148.32" y="0">to</tspan><tspan class="cls-7" x="168.59" y="0">r</tspan><tspan class="cls-4" x="176.52" y="0">e</tspan></text><line class="cls-8" x1="187.59" y1="4.36" x2="187.59" y2="32.42"/></g></svg>