<svg xmlns="http://www.w3.org/2000/svg" viewBox="0 0 388.23 36.79"><defs><style>.cls-1{fill:#fff;}.cls-2{fill:none;stroke:#fff;stroke-miterlimit:10;}</style></defs><g id="dmk_edits" data-name="dmk edits"><g id="teal_simplified_175" data-name="teal/simplified/175"><path class="cls-1" d="M61.34,11.92a1.16,1.16,0,0,1,1.16,1.16V26.52a7.13,7.13,0,0,1-1.55,5,6,6,0,0,1-4.63,1.68,9.9,9.9,0,0,1-6.38-2.1.18.18,0,0,1,0-.22h0a1.06,1.06,0,0,1,1.48-.36,9.76,9.76,0,0,0,1.93.95,9.44,9.44,0,0,0,3,.43A4.73,4.73,0,0,0,60,30.56a5.43,5.43,0,0,0,1.23-3.85V24.14a.17.17,0,0,0-.32-.08,5,5,0,0,1-1.75,1.85,6.38,6.38,0,0,1-3.41.87,6.86,6.86,0,0,1-3.6-1,6.53,6.53,0,0,1-2.44-2.7,8.81,8.81,0,0,1-.87-4,8.69,8.69,0,0,1,.87-4,6.54,6.54,0,0,1,2.44-2.68,6.86,6.86,0,0,1,3.6-1,6.31,6.31,0,0,1,3.36.85,5.14,5.14,0,0,1,1.77,1.82.17.17,0,0,0,.32-.08v-2a.18.18,0,0,1,.17-.17ZM59.73,23.78a6.93,6.93,0,0,0,1.44-4.64,6.87,6.87,0,0,0-1.44-4.62,5,5,0,0,0-4-1.68,5.06,5.06,0,0,0-4,1.68,6.78,6.78,0,0,0-1.47,4.62,6.84,6.84,0,0,0,1.47,4.66,5.06,5.06,0,0,0,4,1.68A5,5,0,0,0,59.73,23.78Z"/><path class="cls-1" d="M68,6.29h.49a.68.68,0,0,1,.68.68v.47a.17.17,0,0,1-.17.17h-.5a.67.67,0,0,1-.67-.67V6.46A.17.17,0,0,1,68,6.29Zm-.15,19.8v-14a.17.17,0,0,1,.17-.17h0a1.16,1.16,0,0,1,1.16,1.16v14a.17.17,0,0,1-.17.17h0A1.16,1.16,0,0,1,67.89,26.09Z"/><path class="cls-1" d="M86.08,11.92a1.16,1.16,0,0,1,1.16,1.16V26.52a7.08,7.08,0,0,1-1.55,5,6,6,0,0,1-4.62,1.68,9.88,9.88,0,0,1-6.38-2.1.17.17,0,0,1,0-.22h0a1.06,1.06,0,0,1,1.48-.36,9.56,9.56,0,0,0,1.94.95,9.36,9.36,0,0,0,3,.43,4.71,4.71,0,0,0,3.61-1.32,5.43,5.43,0,0,0,1.23-3.85V24.14a.16.16,0,0,0-.31-.08,5.12,5.12,0,0,1-1.76,1.85,6.38,6.38,0,0,1-3.41.87,6.8,6.8,0,0,1-3.59-1,6.4,6.4,0,0,1-2.44-2.7,8.81,8.81,0,0,1-.87-4,8.69,8.69,0,0,1,.87-4,6.41,6.41,0,0,1,2.44-2.68,6.8,6.8,0,0,1,3.59-1,6.31,6.31,0,0,1,3.36.85,5.26,5.26,0,0,1,1.78,1.82.17.17,0,0,0,.31-.08v-2a.18.18,0,0,1,.17-.17ZM84.47,23.78a6.93,6.93,0,0,0,1.44-4.64,6.87,6.87,0,0,0-1.44-4.62,5.61,5.61,0,0,0-8,0A6.73,6.73,0,0,0,75,19.14a6.79,6.79,0,0,0,1.48,4.66,5,5,0,0,0,4,1.68A5,5,0,0,0,84.47,23.78Z"/><path class="cls-1" d="M103.81,17.21v9.87a.16.16,0,0,1-.17.17h0a1.19,1.19,0,0,1-1.19-1.19v-1a.17.17,0,0,0-.31-.1,5.06,5.06,0,0,1-1.7,1.68,5.69,5.69,0,0,1-3,.8,6,6,0,0,1-2.68-.61,4.75,4.75,0,0,1-1.93-1.66,4.06,4.06,0,0,1-.72-2.33A3.6,3.6,0,0,1,93,20.24a5.49,5.49,0,0,1,3-1.35,32.1,32.1,0,0,1,5.82-.41h.46a.18.18,0,0,0,.17-.17V17.15a4.91,4.91,0,0,0-.89-3.28,3.52,3.52,0,0,0-2.82-1,9.21,9.21,0,0,0-2.74.39,9.63,9.63,0,0,0-1.65.72,1.13,1.13,0,0,1-1.52-.44h0a.17.17,0,0,1,0-.22A9.31,9.31,0,0,1,95.47,12a10,10,0,0,1,3.08-.49Q103.82,11.54,103.81,17.21ZM100,25.46a4.77,4.77,0,0,0,1.79-1.88,5.68,5.68,0,0,0,.65-2.73v-1a.18.18,0,0,0-.17-.17h-.43a35.56,35.56,0,0,0-5.07.27,4.68,4.68,0,0,0-2.44.92,2.51,2.51,0,0,0-.7,1.92,3,3,0,0,0,1.08,2.39,4,4,0,0,0,2.73.93A4.83,4.83,0,0,0,100,25.46Z"/><path class="cls-1" d="M121.33,17.37v9.71a.16.16,0,0,1-.17.17h0A1.16,1.16,0,0,1,120,26.09V17.5a5.33,5.33,0,0,0-1-3.57,4,4,0,0,0-3.17-1.12,5.24,5.24,0,0,0-3.91,1.5,5.49,5.49,0,0,0-1.47,4v8.76a.17.17,0,0,1-.17.17h0a1.16,1.16,0,0,1-1.16-1.16v-14a.17.17,0,0,1,.17-.17h0a1.13,1.13,0,0,1,1.13,1.13V14a.17.17,0,0,0,.31.09,5,5,0,0,1,1.79-1.74,6.34,6.34,0,0,1,3.22-.81C119.48,11.54,121.33,13.48,121.33,17.37Z"/><path class="cls-1" d="M133.67,27.2h0a.18.18,0,0,1-.15.16,10.46,10.46,0,0,1-1.29.07,4.8,4.8,0,0,1-3.66-1.37,5.23,5.23,0,0,1-1.28-3.7V13.23a.18.18,0,0,0-.17-.17h-2.73a.17.17,0,0,1-.17-.17h0a1,1,0,0,1,1-1h1.93a.18.18,0,0,0,.17-.17V7.31a.18.18,0,0,1,.17-.18h0a1.16,1.16,0,0,1,1.16,1.17v3.45a.18.18,0,0,0,.17.17h4.29a.18.18,0,0,1,.17.17h0a1,1,0,0,1-1,1h-3.49a.18.18,0,0,0-.17.17v8.86a4.43,4.43,0,0,0,.95,3.07,3.62,3.62,0,0,0,2.82,1.05h.29A1,1,0,0,1,133.67,27.2Z"/><path class="cls-1" d="M148.49,13.08v14a.17.17,0,0,1-.17.17h0a1.12,1.12,0,0,1-1.13-1.13V25a.17.17,0,0,0-.32-.08,5.2,5.2,0,0,1-1.79,1.73,6,6,0,0,1-3.12.81,5.25,5.25,0,0,1-4-1.49,6.24,6.24,0,0,1-1.38-4.38V12.09a.18.18,0,0,1,.17-.17h0a1.16,1.16,0,0,1,1.16,1.16v8.41a5.39,5.39,0,0,0,1,3.55,3.82,3.82,0,0,0,3.05,1.14,5,5,0,0,0,3.81-1.51,5.56,5.56,0,0,0,1.45-4V12.09a.17.17,0,0,1,.17-.17h0A1.16,1.16,0,0,1,148.49,13.08Z"/><path class="cls-1" d="M175,17.37v9.71a.16.16,0,0,1-.17.17h0a1.16,1.16,0,0,1-1.16-1.16V17.5a5.78,5.78,0,0,0-.88-3.57,3.39,3.39,0,0,0-2.82-1.12,4.47,4.47,0,0,0-3.54,1.49,5.88,5.88,0,0,0-1.31,4v8.76a.17.17,0,0,1-.17.17h0a1.16,1.16,0,0,1-1.16-1.16V17.5a5.78,5.78,0,0,0-.89-3.57,3.37,3.37,0,0,0-2.82-1.12,4.44,4.44,0,0,0-3.53,1.49,5.83,5.83,0,0,0-1.32,4v8.76a.16.16,0,0,1-.17.17h0a1.16,1.16,0,0,1-1.16-1.16v-14a.18.18,0,0,1,.17-.17h0a1.12,1.12,0,0,1,1.13,1.13v.84a.17.17,0,0,0,.32.09,4.69,4.69,0,0,1,1.57-1.65,5.39,5.39,0,0,1,3-.79q3.45,0,4.59,2.72a.17.17,0,0,0,.3,0,5.14,5.14,0,0,1,1.87-1.92,6,6,0,0,1,3.12-.82Q175,11.54,175,17.37Z"/><path class="cls-1" d="M8.92,7.12l.55,0a10.6,10.6,0,0,1,4.86,1.71,11,11,0,0,1,3.06-4.22,10.22,10.22,0,0,1,1-.77c1.94-1.48,2.89-.89,2.86-1.8,0-.66-.9-.64-2.28-.77A16.82,16.82,0,0,0,12.38,2,9.86,9.86,0,0,0,8.92,7.12Z"/><path class="cls-1" d="M2.07,10.6a10.12,10.12,0,0,0,1.1,6.14l.42-.38a10.66,10.66,0,0,1,4.62-2.3,11.2,11.2,0,0,1-.76-5.19,10.84,10.84,0,0,1,.2-1.3h0A11.13,11.13,0,0,1,9.72,3.06,17.73,17.73,0,0,0,2.07,10.6Z"/><path class="cls-1" d="M9.37,8.3l-.71,0c0,.24-.07.47-.09.71a10.1,10.1,0,0,0,.78,4.9,10.81,10.81,0,0,1,4.19.38,11.21,11.21,0,0,1,.4-4.27A9.59,9.59,0,0,0,9.37,8.3Z"/><path class="cls-1" d="M.07,17.37a18.17,18.17,0,0,0,.67,6.77,9.73,9.73,0,0,0,5,3.54c0-.19,0-.38,0-.57a11.17,11.17,0,0,1,1.67-5A10.79,10.79,0,0,1,3.35,19,12.5,12.5,0,0,1,2.59,18,11.2,11.2,0,0,1,.93,13.28,18.15,18.15,0,0,0,.07,17.37Z"/><path class="cls-1" d="M9.09,15.06a9.6,9.6,0,0,0-4.78,2.18c-.18.16-.36.32-.52.48a6,6,0,0,0,.42.57A9.74,9.74,0,0,0,8.15,21.2a10.87,10.87,0,0,1,6.13-3.87,11.45,11.45,0,0,1-.55-1.81A9.63,9.63,0,0,0,9.09,15.06Z"/><path class="cls-1" d="M7.48,29.17A10.1,10.1,0,0,1,6.21,29,10.62,10.62,0,0,1,1.8,26.86a17.75,17.75,0,0,0,7.37,7.82,9.62,9.62,0,0,0,6-1.14l-.37-.42a11.23,11.23,0,0,1-2.25-4.72A10.49,10.49,0,0,1,7.48,29.17Z"/><path class="cls-1" d="M14.45,19.46c.17-.23.35-.46.54-.68l-.21-.38a9.25,9.25,0,0,0-2.11.67A9.79,9.79,0,0,0,8.8,22.22a10.09,10.09,0,0,0-1.88,5q0,.36,0,.72c.22,0,.46.07.69.09a9.51,9.51,0,0,0,4.8-.79,11.34,11.34,0,0,1,.67-5.19A10.8,10.8,0,0,1,14.45,19.46Z"/><path class="cls-1" d="M25.89,30.89l-.55,0a10.71,10.71,0,0,1-4.86-1.71,11,11,0,0,1-3.06,4.22,11.5,11.5,0,0,1-1,.77,10.63,10.63,0,0,1-4.6,1.7A17.15,17.15,0,0,0,22.43,36,9.9,9.9,0,0,0,25.89,30.89Z"/><path class="cls-1" d="M32.37,27.31a9.74,9.74,0,0,0-1.19-6l-.42.37A9.14,9.14,0,0,1,26.6,24a11.16,11.16,0,0,1,.76,5.19,12.44,12.44,0,0,1-.2,1.3A11.17,11.17,0,0,1,25.09,35,17.21,17.21,0,0,0,32.37,27.31Z"/><path class="cls-1" d="M25.44,29.71a5.63,5.63,0,0,0,.71,0c0-.23.07-.47.09-.71a10.14,10.14,0,0,0-.78-4.9,10.6,10.6,0,0,1-4.19-.38,11.26,11.26,0,0,1-.4,4.28A9.57,9.57,0,0,0,25.44,29.71Z"/><path class="cls-1" d="M16.86,21.17c-.17-.16-.35-.34-.51-.52s-.25-.29-.37-.43l-.34-.45-.28.37a9.72,9.72,0,0,0-1.26,2.33,10,10,0,0,0,1.58,9.92c.15.18.31.36.47.53.19-.14.37-.28.56-.44a9.86,9.86,0,0,0,3-4.4,10.21,10.21,0,0,0,.41-4.75A10.57,10.57,0,0,1,17.84,22,11.26,11.26,0,0,1,16.86,21.17Z"/><path class="cls-1" d="M34.18,16.65a3.8,3.8,0,0,0-3.57-2.94c-1.72-.05-4.08-.07-6.62,0a.5.5,0,0,0-.12,1c3.78,1.18,6.14,2.55,7.79,4.77a8.88,8.88,0,0,1,2.05,5.34c0,.16,0,.33,0,.49l0,0a15.79,15.79,0,0,0,.9-5.93A15.75,15.75,0,0,0,34.18,16.65Z"/></g><path class="cls-1" d="M208.25,18.88v6.43h-1.7V19a3.19,3.19,0,0,0-.56-2.08,2.22,2.22,0,0,0-1.77-.65,3,3,0,0,0-2.25.86,3.2,3.2,0,0,0-.84,2.33v5.86h-1.7V10.51h1.7v6.21a3.52,3.52,0,0,1,1.4-1.41,4.21,4.21,0,0,1,2-.48Q208.25,14.83,208.25,18.88Z"/><path class="cls-1" d="M221.12,15.1l-6.05,14h-1.74l1.72-3.9L210.73,15.1h1.8L216,23.46l3.46-8.36Z"/><path class="cls-1" d="M231.14,15.48a4.31,4.31,0,0,1,1.59,1.85,6.38,6.38,0,0,1,.57,2.77,6.53,6.53,0,0,1-.57,2.81,4.45,4.45,0,0,1-1.59,1.88,4.32,4.32,0,0,1-2.37.67,4,4,0,0,1-2.09-.53,3.34,3.34,0,0,1-1.36-1.49v1.87h-1.7V10.51h1.7v6.34a3.34,3.34,0,0,1,1.36-1.49,4,4,0,0,1,2.09-.53A4.39,4.39,0,0,1,231.14,15.48Zm-.4,7.53a4.56,4.56,0,0,0,.82-2.91,4.34,4.34,0,0,0-.82-2.83,2.83,2.83,0,0,0-2.31-1,2.78,2.78,0,0,0-2.3,1,4.48,4.48,0,0,0-.81,2.87,4.54,4.54,0,0,0,.81,2.89,2.76,2.76,0,0,0,2.3,1A2.79,2.79,0,0,0,230.74,23Z"/><path class="cls-1" d="M242.37,16.3l-1.11.11a3.24,3.24,0,0,0-2.28,1,3.13,3.13,0,0,0-.7,2.08v5.84h-1.7V15.08h1.66v1.79a3.76,3.76,0,0,1,3.38-2l.61,0Z"/><path class="cls-1" d="M246.61,10.65v1.91h-2.05V10.65Zm-1.89,4.43h1.71V25.31h-1.71Z"/><path class="cls-1" d="M259.4,10.51v14.8h-1.7V23.44a3.37,3.37,0,0,1-1.35,1.49,4.06,4.06,0,0,1-2.09.53,4.27,4.27,0,0,1-2.37-.67,4.47,4.47,0,0,1-1.6-1.88,6.53,6.53,0,0,1-.57-2.81,6.38,6.38,0,0,1,.57-2.77,4.22,4.22,0,0,1,4-2.5,4.06,4.06,0,0,1,2.09.53,3.37,3.37,0,0,1,1.35,1.49V10.51ZM256.89,23a4.54,4.54,0,0,0,.81-2.89,4.48,4.48,0,0,0-.81-2.87,2.77,2.77,0,0,0-2.3-1,2.86,2.86,0,0,0-2.32,1,4.34,4.34,0,0,0-.83,2.83,4.56,4.56,0,0,0,.83,2.91,2.82,2.82,0,0,0,2.32,1A2.75,2.75,0,0,0,256.89,23Z"/><path class="cls-1" d="M271.13,24.81a4.44,4.44,0,0,1-1.7-1.86,6.25,6.25,0,0,1-.6-2.81,6.24,6.24,0,0,1,.6-2.8,4.44,4.44,0,0,1,1.7-1.86,5.35,5.35,0,0,1,5.11,0A4.36,4.36,0,0,1,278,17.34a6.23,6.23,0,0,1,.59,2.8A6.25,6.25,0,0,1,278,23a4.36,4.36,0,0,1-1.72,1.86,5.35,5.35,0,0,1-5.11,0ZM276,23.05a4.51,4.51,0,0,0,.81-2.91,4.47,4.47,0,0,0-.82-2.88,3.13,3.13,0,0,0-4.62,0,4.53,4.53,0,0,0-.82,2.88,4.51,4.51,0,0,0,.81,2.9,3.18,3.18,0,0,0,4.64,0Z"/><path class="cls-1" d="M289.35,15.48a4.4,4.4,0,0,1,1.6,1.85,6.52,6.52,0,0,1,.56,2.77,6.68,6.68,0,0,1-.56,2.81,4.55,4.55,0,0,1-1.6,1.88,4.32,4.32,0,0,1-2.37.67,4,4,0,0,1-2.09-.53,3.34,3.34,0,0,1-1.36-1.49v1.87h-1.7V10.51h1.7v6.34a3.34,3.34,0,0,1,1.36-1.49,4,4,0,0,1,2.09-.53A4.39,4.39,0,0,1,289.35,15.48ZM289,23a4.56,4.56,0,0,0,.82-2.91,4.34,4.34,0,0,0-.82-2.83,2.83,2.83,0,0,0-2.31-1,2.79,2.79,0,0,0-2.3,1,4.48,4.48,0,0,0-.81,2.87,4.54,4.54,0,0,0,.81,2.89A3.09,3.09,0,0,0,289,23Z"/><path class="cls-1" d="M296.49,25.21a3.88,3.88,0,0,1-.93,2.83,4.19,4.19,0,0,1-2.85,1.07l-.95.07-.12-1.33.94-.06a2.1,2.1,0,0,0,2.21-2.35V15.08h1.7Zm.19-14.56v1.91h-2.06V10.65Z"/><path class="cls-1" d="M309,20.46h-7.47a4,4,0,0,0,1,2.7,3.31,3.31,0,0,0,2.5.91,5,5,0,0,0,3.28-1.22l.56,1.24a4.65,4.65,0,0,1-1.72,1,6.3,6.3,0,0,1-2.14.37,5,5,0,0,1-3.77-1.41,5.3,5.3,0,0,1-1.37-3.88,6.22,6.22,0,0,1,.6-2.79,4.6,4.6,0,0,1,1.72-1.88,4.78,4.78,0,0,1,2.51-.67,4,4,0,0,1,3.19,1.34A5.39,5.39,0,0,1,309,19.83ZM302.48,17a3.9,3.9,0,0,0-1,2.37h5.94a3.67,3.67,0,0,0-.78-2.39,2.6,2.6,0,0,0-2.05-.82A2.86,2.86,0,0,0,302.48,17Z"/><path class="cls-1" d="M313.9,24.81A4.34,4.34,0,0,1,312.19,23a6.09,6.09,0,0,1-.6-2.78,6,6,0,0,1,.62-2.81A4.58,4.58,0,0,1,314,15.5a5.13,5.13,0,0,1,2.64-.67,5.63,5.63,0,0,1,2,.37,4.3,4.3,0,0,1,1.6,1l-.57,1.26a4.64,4.64,0,0,0-2.94-1.18,3.06,3.06,0,0,0-2.46,1,4.37,4.37,0,0,0-.88,2.9,4.22,4.22,0,0,0,.88,2.85,3.08,3.08,0,0,0,2.46,1,4.64,4.64,0,0,0,2.94-1.18l.57,1.26a4.73,4.73,0,0,1-1.64,1,5.92,5.92,0,0,1-2,.36A5.12,5.12,0,0,1,313.9,24.81Z"/><path class="cls-1" d="M328.43,24l-.09,1.34a5.71,5.71,0,0,1-1,.09,3.69,3.69,0,0,1-2.78-1,3.71,3.71,0,0,1-.93-2.69V16.43h-2V15.08h2V12h1.7v3.1h2.9v1.35h-2.9v5.25c0,1.61.74,2.41,2.22,2.41A7.26,7.26,0,0,0,328.43,24Z"/><path class="cls-1" d="M336.41,24.13l.57-1.26a5.3,5.3,0,0,0,1.67.94,6,6,0,0,0,1.92.28,3.19,3.19,0,0,0,1.73-.39,1.24,1.24,0,0,0,.6-1.12,1.27,1.27,0,0,0-.4-1,3.15,3.15,0,0,0-1.32-.56l-1.73-.4a3.91,3.91,0,0,1-2-1,2.42,2.42,0,0,1-.69-1.76,2.66,2.66,0,0,1,1.07-2.21,4.48,4.48,0,0,1,2.85-.84,6,6,0,0,1,2,.35,4.31,4.31,0,0,1,1.62,1l-.57,1.24a4.67,4.67,0,0,0-3.09-1.2,2.89,2.89,0,0,0-1.67.41,1.3,1.3,0,0,0-.6,1.14,1.35,1.35,0,0,0,.37,1,2.45,2.45,0,0,0,1.19.55l1.74.43a4.42,4.42,0,0,1,2.12,1,2.41,2.41,0,0,1,.7,1.78,2.51,2.51,0,0,1-1.09,2.14,4.87,4.87,0,0,1-2.95.8A6,6,0,0,1,336.41,24.13Z"/><path class="cls-1" d="M353.17,24l-.09,1.34a5.71,5.71,0,0,1-1.05.09,3.67,3.67,0,0,1-2.78-1,3.71,3.71,0,0,1-.93-2.69V16.43h-2V15.08h2V12H350v3.1h2.9v1.35H350v5.25c0,1.61.74,2.41,2.22,2.41A7.26,7.26,0,0,0,353.17,24Z"/><path class="cls-1" d="M357.31,24.81a4.44,4.44,0,0,1-1.7-1.86,6.25,6.25,0,0,1-.6-2.81,6.24,6.24,0,0,1,.6-2.8,4.44,4.44,0,0,1,1.7-1.86,5.37,5.37,0,0,1,5.12,0,4.4,4.4,0,0,1,1.71,1.86,6.24,6.24,0,0,1,.6,2.8,6.25,6.25,0,0,1-.6,2.81,4.4,4.4,0,0,1-1.71,1.86,5.37,5.37,0,0,1-5.12,0Zm4.88-1.76a4.57,4.57,0,0,0,.8-2.91,4.53,4.53,0,0,0-.81-2.88,3.13,3.13,0,0,0-4.62,0,4.47,4.47,0,0,0-.82,2.88,4.51,4.51,0,0,0,.81,2.9,2.77,2.77,0,0,0,2.32,1A2.81,2.81,0,0,0,362.19,23.05Z"/><path class="cls-1" d="M373.81,16.3l-1.11.11a3.24,3.24,0,0,0-2.28,1,3.14,3.14,0,0,0-.71,2.08v5.84H368V15.08h1.66v1.79a3.77,3.77,0,0,1,3.38-2l.61,0Z"/><path class="cls-1" d="M384.52,20.46H377a4,4,0,0,0,1,2.7,3.31,3.31,0,0,0,2.5.91,5,5,0,0,0,3.27-1.22l.57,1.24a4.73,4.73,0,0,1-1.72,1,6.3,6.3,0,0,1-2.14.37,5,5,0,0,1-3.77-1.41,5.3,5.3,0,0,1-1.38-3.88,6.22,6.22,0,0,1,.61-2.79,4.65,4.65,0,0,1,1.71-1.88,4.81,4.81,0,0,1,2.51-.67,4,4,0,0,1,3.19,1.34,5.39,5.39,0,0,1,1.16,3.66ZM378,17a3.78,3.78,0,0,0-1,2.37H383a3.67,3.67,0,0,0-.78-2.39,2.6,2.6,0,0,0-2.06-.82A2.85,2.85,0,0,0,378,17Z"/><line class="cls-2" x1="187.59" y1="4.36" x2="187.59" y2="32.42"/></g></svg>
