<svg height='300px' width='300px'  fill="#000000" xmlns="http://www.w3.org/2000/svg" data-name="Layer 1" viewBox="0 0 128 128" x="0px" y="0px"><title>expandlines</title><path d="M105.95605,0H45.72949A2,2,0,0,0,44.2334.67236L16.50391,31.92383A2.00335,2.00335,0,0,0,16,33.25146V122a6.02856,6.02856,0,0,0,6.04395,6h83.91211A6.02856,6.02856,0,0,0,112,122V6A6.02856,6.02856,0,0,0,105.95605,0ZM44,7.32275V29.9043A2.09172,2.09172,0,0,1,41.917,32H22.40723ZM108,122a2.02485,2.02485,0,0,1-2.04395,2H22.04395A2.02485,2.02485,0,0,1,20,122V36H41.917A6.096,6.096,0,0,0,48,29.9043V4h57.95605A2.02453,2.02453,0,0,1,108,6Z"></path><path d="M94,97H34a4.004,4.004,0,0,0-4,4v8a4.004,4.004,0,0,0,4,4H94a4.004,4.004,0,0,0,4-4v-8A4.004,4.004,0,0,0,94,97ZM34,109v-8H94l.00293,8Z"></path><path d="M95.39331,73.26428a7.991,7.991,0,0,1-1.72345,2.60553L92.54486,77H94l.00293,8H34V77H71.61017a7.95473,7.95473,0,0,1-1.41089-2.475L69.67371,73H34a4.004,4.004,0,0,0-4,4v8a4.004,4.004,0,0,0,4,4H94a4.004,4.004,0,0,0,4-4V77A3.99515,3.99515,0,0,0,95.39331,73.26428Z"></path><path d="M94,49H34a4.00427,4.00427,0,0,0-4,4v8a4.00427,4.00427,0,0,0,4,4H66.91675l-.48022-1.39349A7.96658,7.96658,0,0,1,66.01691,61H34V53H73.99628l.00342-.00018L74.00336,53H94l.00293,8h-.24982a7.65763,7.65763,0,0,1,.27332,3.96454c.00854.00977.01581.02051.02429.03033A4.00138,4.00138,0,0,0,98,61V53A4.00427,4.00427,0,0,0,94,49Z"></path><path d="M90.13879,63.016a4,4,0,0,0-3.17535-3.45874L74.798,57.08038a4,4,0,0,0-4.57977,5.22284L73.981,73.2218a4.00006,4.00006,0,0,0,3.63458,2.694c.04938.00183.09888.00275.148.00275A4.00028,4.00028,0,0,0,80.814,74.50537l1.85016,1.556a3.99994,3.99994,0,0,0,5.40942-.23944l2.76129-2.774a3.99994,3.99994,0,0,0-.26038-5.88324l-1.33777-1.12506A3.99947,3.99947,0,0,0,90.13879,63.016ZM85.23871,73l-5.834-4.90637-1.64191,3.82489L74,61l12.16541,2.47681L82.166,65.31958,88,70.226Z"></path></svg>
